<?xml version="1.0" encoding="UTF-8" standalone="no"?>
<!-- Uploaded to: SVG Repo, www.svgrepo.com, Generator: SVG Repo Mixer Tools -->

<svg
   width="800px"
   height="800px"
   viewBox="0 0 1024 1024"
   class="icon"
   version="1.1"
   id="svg205"
   sodipodi:docname="camera-svgrepo-com.svg"
   xml:space="preserve"
   inkscape:version="1.2.1 (9c6d41e410, 2022-07-14)"
   xmlns:inkscape="http://www.inkscape.org/namespaces/inkscape"
   xmlns:sodipodi="http://sodipodi.sourceforge.net/DTD/sodipodi-0.dtd"
   xmlns="http://www.w3.org/2000/svg"
   xmlns:svg="http://www.w3.org/2000/svg"><defs
     id="defs209" /><sodipodi:namedview
     id="namedview207"
     pagecolor="#505050"
     bordercolor="#eeeeee"
     borderopacity="1"
     inkscape:showpageshadow="0"
     inkscape:pageopacity="0"
     inkscape:pagecheckerboard="0"
     inkscape:deskcolor="#505050"
     showgrid="false"
     inkscape:zoom="0.9275"
     inkscape:cx="400"
     inkscape:cy="400"
     inkscape:window-width="1920"
     inkscape:window-height="974"
     inkscape:window-x="-11"
     inkscape:window-y="-11"
     inkscape:window-maximized="1"
     inkscape:current-layer="svg205" /><path
     d="M327.3 261.6h-99.7c-35.8 0-65.1-29.3-65.1-65.1s29.3-65.1 65.1-65.1h99.7c35.8 0 65.1 29.3 65.1 65.1s-29.3 65.1-65.1 65.1z"
     fill="#FAFCFB"
     id="path181" /><path
     d="M327.3 274.6h-99.7c-43.1 0-78.1-35-78.1-78.1s35-78.1 78.1-78.1h99.7c43.1 0 78.1 35 78.1 78.1s-35 78.1-78.1 78.1z m-99.7-130.2c-28.7 0-52.1 23.4-52.1 52.1s23.4 52.1 52.1 52.1h99.7c28.7 0 52.1-23.4 52.1-52.1s-23.4-52.1-52.1-52.1h-99.7z"
     fill="#0F0F0F"
     id="path183" /><path
     d="M 915.09151,900.8 H 117.80876 C 70.572077,900.8 32.4,863.39407 32.4,817.32573 V 289.1147 c 0,-46.16678 38.272795,-83.47427 85.40876,-83.47427 h 797.28275 c 47.23669,0 85.40879,37.40593 85.40879,83.47427 v 528.21103 c 0,46.06834 -38.1721,83.47427 -85.40879,83.47427 z"
     fill="#fafcfb"
     id="path185"
     style="stroke-width:0.995707" /><path
     d="M908.8 913.8H117.2c-53.9 0-97.8-43.9-97.8-97.8V279.4c0-53.9 43.9-97.8 97.8-97.8h791.6c53.9 0 97.8 43.9 97.8 97.8V816c0 53.9-43.9 97.8-97.8 97.8zM117.2 207.5c-39.6 0-71.8 32.2-71.8 71.8V816c0 39.6 32.2 71.8 71.8 71.8h791.6c39.6 0 71.8-32.2 71.8-71.8V279.4c0-39.6-32.2-71.8-71.8-71.8H117.2z"
     fill="#0F0F0F"
     id="path187" /><path
     d="M30.7 468.4H992v277.5H30.7z"
     fill="#9DC6AF"
     id="path189" /><path
     d="M1005 759H17.7V455.4H1005V759zM43.7 733H979V481.4H43.7V733z"
     fill="#191919"
     id="path191" /><path
     d="M511.3 604m-212.3 0a212.3 212.3 0 1 0 424.6 0 212.3 212.3 0 1 0-424.6 0Z"
     fill="#FAFCFB"
     id="path193" /><path
     d="M511.3 829.3c-60.2 0-116.8-23.4-159.3-66-42.6-42.6-66-99.1-66-159.3s23.4-116.8 66-159.3c42.6-42.6 99.1-66 159.3-66 60.2 0 116.8 23.4 159.3 66 42.6 42.6 66 99.1 66 159.3s-23.4 116.8-66 159.3c-42.5 42.6-99.1 66-159.3 66z m0-424.6C401.4 404.7 312 494.1 312 604s89.4 199.3 199.3 199.3S710.6 713.9 710.6 604s-89.4-199.3-199.3-199.3z"
     fill="#0F0F0F"
     id="path195" /><path
     d="M511.3 604m-141.9 0a141.9 141.9 0 1 0 283.8 0 141.9 141.9 0 1 0-283.8 0Z"
     fill="#D39E33"
     id="path197" /><path
     d="M511.3 759c-85.4 0-154.9-69.5-154.9-154.9s69.5-154.9 154.9-154.9 155 69.4 155 154.8-69.5 155-155 155z m0-283.9c-71.1 0-128.9 57.8-128.9 128.9s57.8 129 128.9 129c71.1 0 128.9-57.8 128.9-128.9s-57.8-129-128.9-129z"
     fill="#0C0C0C"
     id="path199" /><path
     d="M874.6 317.4h-79c-15.3 0-27.9-12.6-27.9-27.9 0-15.3 12.6-27.9 27.9-27.9h79c15.3 0 27.9 12.6 27.9 27.9 0 15.3-12.5 27.9-27.9 27.9z"
     fill="#9DC6AF"
     id="path201" /><path
     d="M874.6 330.4h-79c-22.5 0-40.9-18.3-40.9-40.9s18.3-40.9 40.9-40.9h79c22.5 0 40.9 18.3 40.9 40.9s-18.3 40.9-40.9 40.9z m-79-55.8c-8.2 0-14.9 6.7-14.9 14.9s6.7 14.9 14.9 14.9h79c8.2 0 14.9-6.7 14.9-14.9s-6.7-14.9-14.9-14.9h-79z"
     fill="#191919"
     id="path203" /><g
     id="g250"
     transform="matrix(0.48917809,0,0,0.50033825,-30.320325,115.92453)">
	<g
   id="g240">
		<polygon
   style="fill:#d1dceb"
   points="282.298,209.766 286.262,213.73 282.3,209.768 "
   id="polygon234" />
		<path
   style="fill:#4ec9dc"
   d="M 459.094,300.357 325.404,166.666 c -0.004,-0.004 -0.008,-0.008 -0.012,-0.012 -30.269,-30.26 -74.483,-40.018 -113.681,-27.476 -9.834,3.147 -19.358,7.674 -28.26,13.66 -13.968,9.393 -17.678,28.33 -8.285,42.3 9.392,13.968 28.331,17.677 42.299,8.285 20.266,-13.628 47.532,-10.958 64.835,6.343 10e-4,0.001 10e-4,0.001 0.002,0.002 l 3.963,3.963 129.726,129.729 c 9.69,9.689 15.027,22.573 15.027,36.277 0,13.703 -5.337,26.587 -15.027,36.279 -9.69,9.69 -22.574,15.027 -36.278,15.027 -13.704,0 -26.588,-5.337 -36.278,-15.027 l -53.179,-53.179 c -11.168,3.588 -22.735,5.38 -34.274,5.381 -28.963,0.002 -57.724,-11.172 -79.435,-32.884 l -9.916,-9.916 c 0.003,0.003 0.006,0.007 0.01,0.01 l 133.691,133.69 c 21.202,21.205 49.394,32.882 79.38,32.882 29.986,0 58.178,-11.677 79.381,-32.881 21.203,-21.203 32.881,-49.395 32.881,-79.381 0.001,-29.988 -11.677,-58.178 -32.88,-79.381 z"
   id="path236" />
		<path
   style="fill:#d1dceb"
   d="m 327.23,306.218 c -9.518,-13.883 -28.489,-17.425 -42.372,-7.905 -20.326,13.937 -47.752,11.376 -65.209,-6.082 L 85.959,158.541 c -20.004,-20.004 -20.004,-52.553 0,-72.557 9.69,-9.69 22.574,-15.027 36.278,-15.027 13.704,0 26.588,5.337 36.278,15.027 l 53.195,53.194 c 39.198,-12.543 83.412,-2.784 113.681,27.476 L 201.618,42.881 C 180.415,21.677 152.223,10 122.237,10 92.251,10 64.059,21.677 42.855,42.881 c -43.771,43.771 -43.771,114.992 0,158.762 l 123.775,123.775 9.916,9.916 c 21.711,21.712 50.472,32.886 79.435,32.884 11.538,0 23.105,-1.793 34.274,-5.381 10.127,-3.253 19.928,-7.98 29.069,-14.247 13.884,-9.517 17.424,-28.488 7.906,-42.372 z"
   id="path238" />
	</g>
	<g
   id="g248">
		<path
   d="M 208.689,35.811 C 185.596,12.718 154.894,0 122.237,0 89.58,0 58.877,12.718 35.784,35.811 12.726,58.869 0.027,89.571 0.027,122.263 c 0,32.692 12.699,63.394 35.757,86.452 L 293.259,466.19 c 23.093,23.092 53.796,35.81 86.453,35.81 32.657,0 63.36,-12.718 86.452,-35.811 23.092,-23.092 35.81,-53.794 35.81,-86.452 0,-32.657 -12.717,-63.359 -35.81,-86.452 z M 49.927,194.572 C 30.646,175.292 20.028,149.611 20.028,122.262 20.028,94.913 30.647,69.233 49.927,49.952 69.242,30.638 94.922,20 122.237,20 c 27.315,0 52.995,10.638 72.311,29.953 l 76.476,76.476 0.038,0.02 c -18.734,-3.906 -38.074,-3.387 -56.479,1.492 l 0.011,-0.021 -49.008,-49.008 C 154.007,67.334 138.612,60.957 122.237,60.957 c -16.375,0 -31.77,6.377 -43.349,17.955 -23.902,23.903 -23.902,62.797 0,86.7 l 133.69,133.69 c 20.863,20.863 53.639,23.916 77.935,7.258 4.51,-3.093 9.957,-4.243 15.333,-3.24 5.377,1.003 10.042,4.041 13.135,8.553 3.093,4.512 4.244,9.958 3.241,15.335 -1.003,5.377 -4.041,10.042 -8.553,13.135 -8.141,5.581 -17.048,9.946 -26.474,12.974 -10.125,3.252 -20.626,4.901 -31.215,4.901 -27.347,0.002 -53.046,-10.637 -72.364,-29.955 z m 116.939,6.145 c 6.033,8.973 15.199,15.059 25.81,17.137 10.608,2.079 21.395,-0.1 30.367,-6.132 16.304,-10.964 38.245,-8.814 52.178,5.109 0.002,0.002 0.004,0.005 0.006,0.007 v 0 l 3.964,3.964 c 0.003,0.003 0.006,0.006 0.01,0.009 L 408.92,350.532 c 7.801,7.801 12.098,18.173 12.098,29.206 0,11.032 -4.297,21.406 -12.098,29.208 -7.802,7.801 -18.175,12.098 -29.207,12.098 -11.033,0 -21.405,-4.297 -29.207,-12.098 l -42.431,-42.431 c 5.876,-2.772 11.533,-5.994 16.904,-9.675 8.918,-6.113 14.922,-15.334 16.905,-25.963 1.983,-10.629 -0.292,-21.394 -6.405,-30.312 -6.113,-8.918 -15.334,-14.922 -25.962,-16.905 -10.632,-1.98 -21.395,0.292 -30.312,6.407 -16.354,11.212 -38.427,9.15 -52.483,-4.906 L 93.03,151.47 c -16.104,-16.104 -16.104,-42.311 0,-58.415 7.802,-7.802 18.174,-12.098 29.207,-12.098 11.033,0 21.405,4.296 29.207,12.098 l 42.431,42.43 c -5.559,2.615 -10.914,5.631 -16.005,9.055 -18.522,12.454 -23.459,37.655 -11.004,56.177 z m 285.156,251.33 C 432.708,471.362 407.027,482 379.712,482 c -27.315,0 -52.996,-10.638 -72.31,-29.953 l -76.353,-76.353 -0.023,-0.013 c 8.121,1.673 16.471,2.537 24.956,2.536 10.615,0 21.15,-1.403 31.409,-4.14 l -0.013,0.024 48.986,48.986 c 11.58,11.578 26.975,17.955 43.349,17.955 16.374,0 31.769,-6.377 43.349,-17.956 11.579,-11.58 17.956,-26.976 17.956,-43.35 0,-16.375 -6.377,-31.771 -17.956,-43.349 L 293.334,206.66 l -3.965,-3.965 c -20.675,-20.674 -53.264,-23.856 -77.485,-7.571 -4.54,3.053 -9.995,4.154 -15.364,3.103 -5.368,-1.051 -10.005,-4.13 -13.057,-8.669 -6.301,-9.371 -3.804,-22.121 5.566,-28.422 7.908,-5.317 16.564,-9.501 25.728,-12.434 36.696,-11.739 76.378,-2.152 103.564,25.023 0.027,0.027 0.055,0.055 0.083,0.082 l 133.619,133.62 c 19.315,19.314 29.952,44.995 29.952,72.31 0,27.316 -10.638,52.996 -29.953,72.31 z"
   id="path242" />
		<path
   d="m 191.072,311.071 c 3.905,-3.905 3.905,-10.237 0,-14.143 L 179.074,284.93 c -3.905,-3.904 -10.237,-3.904 -14.143,0 -3.905,3.905 -3.905,10.237 0,14.143 l 11.998,11.998 c 1.953,1.952 4.512,2.929 7.071,2.929 2.559,0 5.12,-0.977 7.072,-2.929 z"
   id="path244" />
		<path
   d="m 77.072,182.929 c -3.905,-3.903 -10.237,-3.904 -14.142,0 -3.905,3.905 -3.905,10.237 0,14.143 l 75.999,75.999 c 1.953,1.952 4.512,2.929 7.071,2.929 2.559,0 5.119,-0.977 7.071,-2.929 3.905,-3.905 3.905,-10.237 0,-14.143 z"
   id="path246" />
	</g>
</g></svg>
